# xmcd CD database file
#
# Track frame offsets:
#	150
#	16842
#	34250
#	52610
#	68225
#	85690
#	101920
#	121632
#	137195
#	152780
#
# Disc length: 2231 seconds
#
# Revision: 2
# Processed by: cddbd v1.5.2PL0 Copyright (c) Steve Scherf et al.
# Submitted via: CDex 1.51
#
DISCID=7608b50a
DTITLE=Bellamy Brothers - Greatest Hits Vol 2
DYEAR=1986
DGENRE=Country
TTITLE0=Feelin' The Feelin
TTITLE1=When I'm Away From You
TTITLE2=Old Hippie
TTITLE3=Lie To You For Your Love
TTITLE4=Too Much Is Not Enough
TTITLE5=Forget About Me
TTITLE6=World's Greatest Lover
TTITLE7=I Need More Of You
TTITLE8=Strong Weakness
TTITLE9=I Love Her Mind
EXTD=YEAR: 1986
EXTT0=
EXTT1=
EXTT2=
EXTT3=
EXTT4=
EXTT5=
EXTT6=
EXTT7=
EXTT8=
EXTT9=
PLAYORDER=
